<svg width="29" height="29" viewBox="0 0 29 29" fill="none" xmlns="http://www.w3.org/2000/svg">
<path d="M8.45833 7.25C5.78896 7.25 3.625 9.41396 3.625 12.0833C3.625 14.3355 5.16535 16.2278 7.25 16.7644C7.25 18.5441 8.69276 20.1392 10.4725 20.1392C11.9598 20.1392 15.0345 20.0252 16.3745 21.1458L19.27 18.2504C19.8638 18.684 20.6357 18.9802 21.5891 18.9802C23.3689 18.9802 24.8116 17.5374 24.8116 15.7576C24.8116 14.3204 23.8458 13.1028 22.5463 12.6875C23.523 12.0381 24.1668 10.9275 24.1668 9.66667C24.1668 7.66463 22.5438 6.04167 20.5418 6.04167C19.9064 6.04167 19.3092 6.20514 18.7899 6.49231C17.871 4.79123 15.965 3.625 13.8959 3.625C11.5284 3.625 9.80895 5.17548 9.0625 7.28739C8.86458 7.26271 8.66294 7.25 8.45833 7.25Z" fill="#8F77F9"/>
<path d="M7.25 16.7644C5.16535 16.2278 3.625 14.3355 3.625 12.0833C3.625 9.41396 5.78896 7.25 8.45833 7.25C8.66294 7.25 8.86458 7.26271 9.0625 7.28739C9.80895 5.17548 11.5284 3.625 13.8959 3.625C15.965 3.625 17.871 4.79123 18.7899 6.49231C19.3092 6.20514 19.9064 6.04167 20.5418 6.04167C22.5438 6.04167 24.1668 7.66463 24.1668 9.66667C24.1668 10.9275 23.523 12.0381 22.5463 12.6875C23.8458 13.1028 24.8116 14.3203 24.8116 15.7576C24.8116 17.5374 23.3689 18.9802 21.5891 18.9802C19.8094 18.9802 18.6623 17.9483 18.125 16.9167C16.9354 17.5323 15.4719 17.067 14.8563 15.8774M7.25 16.7644C7.25 18.5441 8.69276 20.1392 10.4725 20.1392C12.406 20.1392 17.0226 19.9465 17.0226 22.5245V25.1025M7.25 16.7644C7.25 14.9846 8.69276 13.6941 10.4725 13.6941M11.926 9.67142C12.5958 8.51139 14.0791 8.11393 15.2391 8.78367C16.3992 9.45342 16.7966 10.9367 16.1269 12.0968" stroke="black" stroke-width="2" stroke-linecap="round" stroke-linejoin="round"/>
</svg>
