<svg width="23" height="23" viewBox="0 0 23 23" fill="none" xmlns="http://www.w3.org/2000/svg">
<g clip-path="url(#clip0_90_141)">
<path fill-rule="evenodd" clip-rule="evenodd" d="M17.3527 1.7499C17.5884 1.11155 17.2622 0.402957 16.6237 0.167212C15.9854 -0.0685343 15.2768 0.257845 15.041 0.896199C14.2963 2.91272 14.3421 5.13632 15.1692 7.12048L15.1705 7.12357C15.6434 8.24939 15.7718 9.49016 15.5394 10.689C15.3867 11.4772 15.0825 12.2241 14.6477 12.8898L10.0841 8.32614C10.7551 7.89179 11.5063 7.58727 12.2987 7.43315C12.9667 7.30324 13.4029 6.65641 13.2729 5.98843C13.143 5.32046 12.4962 4.88428 11.8282 5.01419C10.1327 5.34397 8.57282 6.1683 7.34513 7.38331L7.33513 7.39331C6.13538 8.60826 5.32187 10.151 4.99701 11.8273C4.81799 12.751 4.79177 13.6926 4.91461 14.6154C3.57448 14.4316 2.19809 14.5712 0.904472 15.0382C0.264401 15.2692 -0.0671831 15.9754 0.163859 16.6154C0.394901 17.2555 1.10108 17.5871 1.74115 17.356C3.02319 16.8934 4.42004 16.8847 5.70057 17.3228C6.11624 18.6011 6.09908 19.9867 5.64266 21.2617C5.41333 21.9024 5.74678 22.6077 6.38746 22.8371C7.02814 23.0664 7.73344 22.7331 7.96278 22.0924C8.68823 20.0657 8.62347 17.8403 7.78149 15.8593C7.31122 14.7336 7.18417 13.4939 7.41628 12.2961C7.57186 11.4934 7.88409 10.7335 8.33101 10.0581L12.9092 14.6363C12.2237 15.0903 11.4524 15.4081 10.6375 15.5671C9.9696 15.6975 9.53385 16.3446 9.66419 17.0125C9.79455 17.6803 10.4417 18.1161 11.1096 17.9857C12.8128 17.6534 14.3789 16.8227 15.6095 15.5991L15.6163 15.5924C16.8184 14.3784 17.6336 12.8351 17.9587 11.1578C18.1368 10.2385 18.1634 9.30154 18.042 8.38309C19.3959 8.57129 20.7866 8.43227 22.0936 7.96248C22.734 7.73233 23.0665 7.02661 22.8364 6.38621C22.6062 5.74582 21.9004 5.41328 21.26 5.64344C19.9655 6.10873 18.5556 6.11736 17.262 5.67612C16.856 4.39855 16.885 3.01673 17.3527 1.7499Z" fill="#B8B8B8"/>
</g>
<defs>
<clipPath id="clip0_90_141">
<rect width="23" height="23" fill="white"/>
</clipPath>
</defs>
</svg>
