<svg width="28" height="28" viewBox="0 0 28 28" fill="none" xmlns="http://www.w3.org/2000/svg">
<path d="M14.0002 15.1667C14.6445 15.1667 15.1668 14.6444 15.1668 14C15.1668 13.3557 14.6445 12.8334 14.0002 12.8334C13.3558 12.8334 12.8335 13.3557 12.8335 14C12.8335 14.6444 13.3558 15.1667 14.0002 15.1667Z" fill="#B8B8B8"/>
<path d="M14.0002 7.00002C14.6445 7.00002 15.1668 6.47769 15.1668 5.83335C15.1668 5.18902 14.6445 4.66669 14.0002 4.66669C13.3558 4.66669 12.8335 5.18902 12.8335 5.83335C12.8335 6.47769 13.3558 7.00002 14.0002 7.00002Z" fill="#B8B8B8"/>
<path d="M14.0002 23.3334C14.6445 23.3334 15.1668 22.811 15.1668 22.1667C15.1668 21.5224 14.6445 21 14.0002 21C13.3558 21 12.8335 21.5224 12.8335 22.1667C12.8335 22.811 13.3558 23.3334 14.0002 23.3334Z" fill="#B8B8B8"/>
<path d="M14.0002 15.1667C14.6445 15.1667 15.1668 14.6444 15.1668 14C15.1668 13.3557 14.6445 12.8334 14.0002 12.8334C13.3558 12.8334 12.8335 13.3557 12.8335 14C12.8335 14.6444 13.3558 15.1667 14.0002 15.1667Z" stroke="#B8B8B8" stroke-width="4" stroke-linecap="round" stroke-linejoin="round"/>
<path d="M14.0002 7.00002C14.6445 7.00002 15.1668 6.47769 15.1668 5.83335C15.1668 5.18902 14.6445 4.66669 14.0002 4.66669C13.3558 4.66669 12.8335 5.18902 12.8335 5.83335C12.8335 6.47769 13.3558 7.00002 14.0002 7.00002Z" stroke="#B8B8B8" stroke-width="4" stroke-linecap="round" stroke-linejoin="round"/>
<path d="M14.0002 23.3334C14.6445 23.3334 15.1668 22.811 15.1668 22.1667C15.1668 21.5224 14.6445 21 14.0002 21C13.3558 21 12.8335 21.5224 12.8335 22.1667C12.8335 22.811 13.3558 23.3334 14.0002 23.3334Z" stroke="#B8B8B8" stroke-width="4" stroke-linecap="round" stroke-linejoin="round"/>
</svg>
